<svg xmlns="http://www.w3.org/2000/svg" width="900" height="600"><path fill="#efefef" d="M0 0h900v600H0z"/><path fill="#ff8886" d="M634.3-25.8c16.4 13 22.8 38.7 37.2 70.4 14.4 31.7 36.8 69.4 34.2 110.1-2.7 40.7-30.4 84.4-71.5 105.5-41.2 21.2-95.7 19.8-128.8-6.8-33.2-26.6-44.9-78.4-60.8-120.7-15.8-42.3-35.8-75-36.9-110.6-1.1-35.7 16.6-74.2 45.9-84.9C483-73.5 524-56.4 557.7-47.7c33.7 8.7 60.2 8.9 76.6 21.9Z"/><path fill="#ADD8E6" d="M293.3 262.5c28.3 24.3 42.4 64.9 51.7 107.9 9.4 43 14.1 88.3-3.3 123.4-17.3 35-56.7 59.8-99 74.3-42.3 14.4-87.6 18.5-131 7.2-43.4-11.3-85.1-38-102-75.2-17-37.2-9.3-84.8-.5-131.7 8.9-47 18.9-93.2 47.6-117.4 28.6-24.3 75.9-26.4 120.8-23.6 44.9 2.9 87.4 10.8 115.7 35.1Z"/><path fill="#94d391" d="M601.7 227.9c15.1 13.6 2 59.9 2 98.2.1 38.3 13.2 68.6 9.3 102.2-3.8 33.6-24.7 70.3-58.3 90.8-33.7 20.5-80.3 24.7-106.7 2.6-26.5-22.1-32.8-70.6-38.5-106.7-5.7-36.1-10.8-59.9-7.5-83 3.2-23.1 14.6-45.4 32.4-58.5 17.7-13.2 41.6-17.2 75.3-28.7 33.6-11.5 76.9-30.5 92-16.9Z"/></svg>